<svg width="120" height="30" viewBox="0 0 120 30" fill="none" xmlns="http://www.w3.org/2000/svg">
<path d="M13.8359 5.86768V2.11768H1.83594V27.8824H13.8359V24.1324C11.3777 24.1324 9.02018 23.1702 7.282 21.4575C5.54379 19.7449 4.56728 17.4221 4.56728 15C4.56728 12.578 5.54379 10.2551 7.282 8.54248C9.02018 6.82984 11.3777 5.86768 13.8359 5.86768Z" fill="url(#paint0_linear_1_15)"/>
<path d="M13.8359 5.86768V24.1324C16.2941 24.1324 18.6517 23.1702 20.3899 21.4575C22.1281 19.7449 23.1046 17.4221 23.1046 15C23.1046 12.578 22.1281 10.2551 20.3899 8.54248C18.6517 6.82984 16.2941 5.86768 13.8359 5.86768Z" fill="url(#paint1_linear_1_15)"/>
<path d="M29.8389 8.16174H32.5254V20.9117H29.8389V8.16174Z" fill="url(#paint2_linear_1_15)"/>
<path d="M34.0297 16.5441C34.0297 15.6268 34.3062 14.7302 34.824 13.9678C35.3418 13.2055 36.0776 12.6117 36.9383 12.2619C37.799 11.9121 38.7456 11.8219 39.6583 12.0028C40.5711 12.1837 41.4087 12.6275 42.0652 13.278C42.7216 13.9286 43.1673 14.7564 43.3457 15.6567C43.524 16.5571 43.4271 17.4893 43.0671 18.3353C42.7071 19.1812 42.1003 19.9029 41.3237 20.4086C40.547 20.9145 39.6353 21.1817 38.7043 21.1765C38.0869 21.1812 37.4746 21.0645 36.9035 20.833C36.3325 20.6015 35.814 20.2601 35.3786 19.8287C34.9432 19.3972 34.5996 18.8844 34.368 18.3204C34.1364 17.7564 34.0214 17.1525 34.0297 16.5441ZM40.764 16.5441C40.7535 16.1486 40.6248 15.765 40.3941 15.4413C40.1634 15.1174 39.841 14.8678 39.4671 14.7236C39.0932 14.5795 38.6845 14.5471 38.292 14.6306C37.8995 14.7141 37.5408 14.9097 37.2606 15.1931C36.9804 15.4765 36.7912 15.8349 36.7166 16.2236C36.6421 16.6124 36.6856 17.0141 36.8416 17.3786C36.9976 17.7431 37.2592 18.0544 37.5937 18.2731C37.9282 18.4919 38.3207 18.6086 38.7223 18.6088C38.9957 18.6141 39.2672 18.5637 39.5199 18.4609C39.7726 18.3581 40.0011 18.205 40.191 18.0112C40.3809 17.8174 40.5283 17.5871 40.6238 17.3347C40.7194 17.0823 40.761 16.8131 40.7461 16.5441H40.764Z" fill="url(#paint3_linear_1_15)"/>
<path d="M54.0092 12.1765V20.4794C54.0092 23.4088 51.6808 24.6529 49.3256 24.6529C48.4948 24.7201 47.6616 24.5575 46.9196 24.1834C46.1776 23.8092 45.5563 23.2384 45.1256 22.5353L47.3913 21.2471C47.5749 21.6118 47.8669 21.9127 48.2285 22.1097C48.5901 22.3068 49.004 22.3906 49.4152 22.35C49.6771 22.3818 49.9429 22.3562 50.1936 22.275C50.4443 22.1937 50.6736 22.059 50.8653 21.8802C51.057 21.7015 51.2062 21.4833 51.3023 21.2411C51.3984 20.9989 51.439 20.7388 51.4211 20.4794V19.6765C51.1085 20.05 50.7118 20.3464 50.2626 20.5425C49.8133 20.7386 49.3239 20.8287 48.8331 20.8059C47.6455 20.8059 46.5067 20.3411 45.667 19.5137C44.8272 18.6864 44.3555 17.5642 44.3555 16.3941C44.3555 15.224 44.8272 14.1019 45.667 13.2746C46.5067 12.4472 47.6455 11.9824 48.8331 11.9824C49.3239 11.9595 49.8133 12.0497 50.2626 12.2457C50.7118 12.4418 51.1085 12.7383 51.4211 13.1118V12.2294L54.0092 12.1765ZM51.4211 16.3676C51.439 15.9455 51.3283 15.5277 51.1032 15.1681C50.8782 14.8084 50.5492 14.5234 50.1583 14.3494C49.7675 14.1755 49.3329 14.1208 48.9102 14.1923C48.4876 14.2638 48.0962 14.4581 47.7867 14.7505C47.4771 15.0428 47.2633 15.4197 47.1729 15.8328C47.0824 16.2458 47.1194 16.6759 47.2791 17.0681C47.4388 17.4602 47.7139 17.7963 48.069 18.0331C48.4242 18.2699 48.8431 18.3967 49.2719 18.3971C49.5517 18.4169 49.8327 18.3787 50.0965 18.285C50.3604 18.1912 50.6015 18.0439 50.8039 17.8526C51.0065 17.6614 51.1661 17.4304 51.2724 17.1746C51.3787 16.9189 51.4294 16.6439 51.4211 16.3676Z" fill="url(#paint4_linear_1_15)"/>
<path d="M55.5223 16.5441C55.5223 15.6275 55.7983 14.7316 56.3153 13.9696C56.8323 13.2076 57.567 12.6138 58.4266 12.2636C59.2863 11.9132 60.232 11.8219 61.1443 12.0014C62.0566 12.1809 62.8942 12.6229 63.5514 13.2716C64.2086 13.9204 64.6556 14.7467 64.836 15.6458C65.0164 16.545 64.922 17.4767 64.5648 18.3229C64.2076 19.1693 63.6036 19.8921 62.8293 20.4001C62.0549 20.9081 61.1451 21.1782 60.2148 21.1765C59.5962 21.1824 58.9825 21.0665 58.4099 20.8357C57.8373 20.6049 57.3172 20.2638 56.8802 19.8323C56.4431 19.4008 56.0978 18.8877 55.8646 18.3231C55.6315 17.7585 55.5151 17.1536 55.5223 16.5441ZM62.2566 16.5441C62.246 16.1483 62.1171 15.7643 61.886 15.4403C61.655 15.1164 61.332 14.8668 60.9576 14.7228C60.5831 14.5789 60.174 14.5471 59.7813 14.6313C59.3886 14.7155 59.0299 14.9121 58.75 15.1963C58.4702 15.4805 58.2817 15.8398 58.2082 16.2291C58.1347 16.6184 58.1794 17.0204 58.3367 17.3847C58.4941 17.7491 58.7571 18.0596 59.0928 18.2774C59.4285 18.4951 59.8219 18.6104 60.2238 18.6088C60.4972 18.6141 60.7687 18.5637 61.0214 18.4608C61.2741 18.3581 61.5026 18.205 61.6925 18.0112C61.8825 17.8174 62.0298 17.5871 62.1253 17.3347C62.2209 17.0823 62.2625 16.8131 62.2477 16.5441H62.2566Z" fill="url(#paint5_linear_1_15)"/>
<path d="M66.1523 9.83829C66.1523 9.5277 66.2458 9.224 66.421 8.96573C66.5962 8.70743 66.8451 8.50613 67.1363 8.38725C67.4277 8.26838 67.7482 8.23728 68.0574 8.29788C68.3665 8.35848 68.6506 8.50806 68.8736 8.72772C69.0965 8.94738 69.2482 9.22726 69.3098 9.53185C69.3713 9.83653 69.3397 10.1523 69.2191 10.4393C69.0984 10.7263 68.8941 10.9716 68.632 11.1442C68.3698 11.3168 68.0617 11.4089 67.7464 11.4089C67.325 11.4043 66.9223 11.2373 66.6244 10.9438C66.3264 10.6502 66.157 10.2534 66.1523 9.83829ZM66.412 12.1765H69.0986V20.9118H66.412V12.1765Z" fill="url(#paint6_linear_1_15)"/>
<path d="M80.5969 16.5441C80.627 17.125 80.5402 17.7062 80.3415 18.2539C80.1429 18.8017 79.8362 19.3053 79.4392 19.7358C79.0421 20.1664 78.5627 20.5153 78.0282 20.7625C77.4938 21.0098 76.9151 21.1504 76.3253 21.1765C75.8248 21.2093 75.3232 21.1303 74.8581 20.9455C74.3928 20.7605 73.9761 20.4745 73.6387 20.1088V24.4235H70.9521V12.1765H73.6387V12.997C73.9765 12.6324 74.3936 12.3477 74.8589 12.1644C75.3241 11.9809 75.8254 11.9036 76.3253 11.9382C76.9127 11.9642 77.4892 12.1041 78.0218 12.3497C78.5543 12.5952 79.0326 12.9418 79.4292 13.3695C79.826 13.7972 80.1332 14.2976 80.3335 14.8424C80.5339 15.3871 80.6234 15.9653 80.5969 16.5441ZM77.9104 16.5441C77.8998 16.1342 77.7666 15.7367 77.5277 15.4011C77.2888 15.0655 76.9546 14.8068 76.5671 14.6576C76.1796 14.5083 75.756 14.4752 75.3493 14.5621C74.9428 14.649 74.5713 14.8523 74.2814 15.1464C73.9915 15.4405 73.7962 15.8123 73.72 16.2153C73.6437 16.6183 73.6898 17.0345 73.8527 17.4118C74.0155 17.789 74.2876 18.1105 74.6351 18.3361C74.9825 18.5616 75.3898 18.681 75.8059 18.6794C76.0908 18.6913 76.3752 18.6437 76.6401 18.5398C76.9052 18.4359 77.145 18.2779 77.3437 18.0763C77.5424 17.8747 77.6955 17.6339 77.7932 17.3699C77.8909 17.1058 77.9308 16.8244 77.9104 16.5441Z" fill="url(#paint7_linear_1_15)"/>
<path d="M88.773 18.2912C88.773 20.303 86.982 21.1589 85.0835 21.1589C84.3091 21.2275 83.5317 21.0658 82.8517 20.6946C82.1716 20.3234 81.6201 19.7597 81.2686 19.0765L83.579 17.7883C83.6705 18.1031 83.869 18.3774 84.1412 18.5654C84.4135 18.7533 84.7429 18.8434 85.0745 18.8206C85.7103 18.8206 86.0327 18.6265 86.0327 18.2736C86.0327 17.3118 81.6715 17.8236 81.6715 14.7971C81.6715 12.8912 83.3014 11.9383 85.1462 11.9383C85.8474 11.9073 86.5441 12.0641 87.1621 12.3919C87.7802 12.7197 88.2966 13.2063 88.6566 13.8001L86.3462 15.0001C86.2441 14.7724 86.0773 14.5788 85.866 14.4426C85.6546 14.3063 85.4077 14.2334 85.1551 14.2324C84.6894 14.2324 84.4118 14.4089 84.4118 14.7177C84.4118 15.7236 88.773 15.0618 88.773 18.2912Z" fill="url(#paint8_linear_1_15)"/>
<path d="M98.5075 12.1765V20.9118H95.8209V20.0912C95.5155 20.4545 95.1278 20.7419 94.6899 20.9304C94.2511 21.119 93.7737 21.2032 93.2955 21.1765C91.5045 21.1765 89.9731 19.9147 89.9731 17.5589V12.1765H92.6597V17.1618C92.6382 17.3702 92.6633 17.5807 92.7331 17.7787C92.803 17.9766 92.9149 18.1573 93.0618 18.3083C93.2096 18.4593 93.3887 18.577 93.5866 18.6533C93.7845 18.7296 93.9967 18.7626 94.209 18.75C95.1761 18.75 95.8567 18.1853 95.8567 16.9853V12.1765H98.5075Z" fill="url(#paint9_linear_1_15)"/>
<path d="M113.731 15.547V20.9117H111.045V15.7764C111.045 14.8941 110.624 14.347 109.773 14.347C108.922 14.347 108.385 14.9558 108.385 15.9882V20.9117H105.698V15.7764C105.698 14.8941 105.277 14.347 104.427 14.347C103.576 14.347 103.039 14.9558 103.039 15.9882V20.9117H100.352V12.1764H103.039V12.9794C103.317 12.6247 103.68 12.3437 104.096 12.1619C104.512 11.9802 104.968 11.9032 105.421 11.9382C105.875 11.9148 106.328 12.0083 106.734 12.2094C107.141 12.4105 107.488 12.7124 107.74 13.0852C108.036 12.6956 108.426 12.3861 108.876 12.1855C109.324 11.9849 109.819 11.8998 110.31 11.9382C112.406 11.9382 113.731 13.3676 113.731 15.547Z" fill="url(#paint10_linear_1_15)"/>
<path d="M115.988 12.1236C117.076 12.1236 117.958 11.2544 117.958 10.1824C117.958 9.11033 117.076 8.24121 115.988 8.24121C114.9 8.24121 114.018 9.11033 114.018 10.1824C114.018 11.2544 114.9 12.1236 115.988 12.1236Z" fill="url(#paint11_linear_1_15)"/>
<defs>
<linearGradient id="paint0_linear_1_15" x1="7.83594" y1="2.11768" x2="7.83594" y2="27.8824" gradientUnits="userSpaceOnUse">
<stop stop-color="#26C0F1"/>
<stop offset="1" stop-color="#93A2F1"/>
</linearGradient>
<linearGradient id="paint1_linear_1_15" x1="18.4703" y1="5.86768" x2="18.4703" y2="24.1324" gradientUnits="userSpaceOnUse">
<stop stop-color="#26C0F1"/>
<stop offset="1" stop-color="#93A2F1"/>
</linearGradient>
<linearGradient id="paint2_linear_1_15" x1="31.1822" y1="8.16174" x2="31.1822" y2="20.9117" gradientUnits="userSpaceOnUse">
<stop stop-color="#26C0F1"/>
<stop offset="1" stop-color="#93A2F1"/>
</linearGradient>
<linearGradient id="paint3_linear_1_15" x1="38.731" y1="11.9119" x2="38.731" y2="21.1766" gradientUnits="userSpaceOnUse">
<stop stop-color="#26C0F1"/>
<stop offset="1" stop-color="#93A2F1"/>
</linearGradient>
<linearGradient id="paint4_linear_1_15" x1="49.1823" y1="11.9789" x2="49.1823" y2="24.6677" gradientUnits="userSpaceOnUse">
<stop stop-color="#26C0F1"/>
<stop offset="1" stop-color="#93A2F1"/>
</linearGradient>
<linearGradient id="paint5_linear_1_15" x1="60.2236" y1="11.9117" x2="60.2236" y2="21.1767" gradientUnits="userSpaceOnUse">
<stop stop-color="#26C0F1"/>
<stop offset="1" stop-color="#93A2F1"/>
</linearGradient>
<linearGradient id="paint6_linear_1_15" x1="67.7464" y1="8.2677" x2="67.7464" y2="20.9118" gradientUnits="userSpaceOnUse">
<stop stop-color="#26C0F1"/>
<stop offset="1" stop-color="#93A2F1"/>
</linearGradient>
<linearGradient id="paint7_linear_1_15" x1="75.7774" y1="11.9302" x2="75.7774" y2="24.4235" gradientUnits="userSpaceOnUse">
<stop stop-color="#26C0F1"/>
<stop offset="1" stop-color="#93A2F1"/>
</linearGradient>
<linearGradient id="paint8_linear_1_15" x1="85.0208" y1="11.9344" x2="85.0208" y2="21.1743" gradientUnits="userSpaceOnUse">
<stop stop-color="#26C0F1"/>
<stop offset="1" stop-color="#93A2F1"/>
</linearGradient>
<linearGradient id="paint9_linear_1_15" x1="94.2403" y1="12.1765" x2="94.2403" y2="21.1814" gradientUnits="userSpaceOnUse">
<stop stop-color="#26C0F1"/>
<stop offset="1" stop-color="#93A2F1"/>
</linearGradient>
<linearGradient id="paint10_linear_1_15" x1="107.042" y1="11.9292" x2="107.042" y2="20.9117" gradientUnits="userSpaceOnUse">
<stop stop-color="#26C0F1"/>
<stop offset="1" stop-color="#93A2F1"/>
</linearGradient>
<linearGradient id="paint11_linear_1_15" x1="115.988" y1="8.24121" x2="115.988" y2="12.1236" gradientUnits="userSpaceOnUse">
<stop stop-color="#26C0F1"/>
<stop offset="1" stop-color="#93A2F1"/>
</linearGradient>
</defs>
</svg>
